<?xml version="1.0" encoding="UTF-8" standalone="no"?>
<!-- Created with Inkscape (http://www.inkscape.org/) -->

<svg
   width="120"
   height="120"
   viewBox="0 0 12.7 12.7"
   version="1.1"
   id="svg5"
   xml:space="preserve"
   xmlns:xlink="http://www.w3.org/1999/xlink"
   xmlns="http://www.w3.org/2000/svg"
   xmlns:svg="http://www.w3.org/2000/svg"><defs
     id="defs2"><linearGradient
       id="linearGradient40694"><stop
         style="stop-color:#3644c7;stop-opacity:1;"
         offset="0"
         id="stop40690" /><stop
         style="stop-color:#000000;stop-opacity:1;"
         offset="1"
         id="stop40692" /></linearGradient><linearGradient
       id="linearGradient37686"><stop
         style="stop-color:#000000;stop-opacity:1;"
         offset="0"
         id="stop37682" /><stop
         style="stop-color:#3696c7;stop-opacity:1;"
         offset="1"
         id="stop37684" /></linearGradient><linearGradient
       id="linearGradient36112"><stop
         style="stop-color:#36c7c3;stop-opacity:1;"
         offset="0"
         id="stop36108" /><stop
         style="stop-color:#000000;stop-opacity:1;"
         offset="1"
         id="stop36110" /></linearGradient><marker
       style="overflow:visible"
       id="RoundedArrow"
       refX="0"
       refY="0"
       orient="auto-start-reverse"
       markerWidth="5"
       markerHeight="4.1666665"
       viewBox="0 0 6.1347524 5.9304951"
       preserveAspectRatio="xMidYMid"><path
         transform="scale(0.7)"
         d="m -0.21114562,-4.1055728 6.42229122,3.21114561 a 1,1 90 0 1 0,1.78885438 L -0.21114562,4.1055728 A 1.236068,1.236068 31.717474 0 1 -2,3 v -6 a 1.236068,1.236068 148.28253 0 1 1.78885438,-1.1055728 z"
         style="fill:context-stroke;fill-rule:evenodd;stroke:none"
         id="path1367" /></marker><linearGradient
       xlink:href="#linearGradient36112"
       id="linearGradient36114"
       x1="5.9684448"
       y1="8.835597"
       x2="5.800055"
       y2="16.587549"
       gradientUnits="userSpaceOnUse"
       gradientTransform="matrix(1.2474403,0,0,1.2474403,-1.4482518,-1.6655785)" /><linearGradient
       xlink:href="#linearGradient37686"
       id="linearGradient37688"
       x1="21.920315"
       y1="-2.9569736"
       x2="5.7665877"
       y2="7.3454633"
       gradientUnits="userSpaceOnUse"
       gradientTransform="matrix(1.2474403,0,0,1.2474403,-1.4482518,-1.6655785)" /><linearGradient
       xlink:href="#linearGradient40694"
       id="linearGradient40696"
       x1="5.2184219"
       y1="7.4487543"
       x2="-0.45847067"
       y2="2.2006853"
       gradientUnits="userSpaceOnUse"
       gradientTransform="matrix(1.2474403,0,0,1.2474403,-1.4482518,-1.6655785)" /></defs><g
     id="layer1"><g
       id="g31568"
       transform="matrix(0.86577376,0,0,0.81820789,1.3037488,0.84913823)"><path
         style="fill:url(#linearGradient36114);fill-opacity:1;stroke:none;stroke-width:0.20538;stroke-linecap:round;stroke-linejoin:round;stroke-dasharray:none;stroke-opacity:1;paint-order:normal"
         d="M 5.6675353,14.118711 0.66389504,10.313748 5.7543606,7.4012034 11.291034,10.33491 Z"
         id="path9113" /><path
         style="fill:url(#linearGradient40696);fill-opacity:1;stroke:none;stroke-width:0.20538;stroke-linecap:round;stroke-linejoin:round;stroke-dasharray:none;stroke-opacity:1;paint-order:normal"
         d="m 0.50169686,3.2336786 0.0184534,7.1225434 5.25558584,-2.7756409 0.00248,-8.07636979 z"
         id="path2162" /><path
         style="fill:url(#linearGradient37688);fill-opacity:1;stroke:none;stroke-width:0.20538;stroke-linecap:round;stroke-linejoin:round;stroke-dasharray:none;stroke-opacity:1;paint-order:normal"
         d="M 11.061457,3.1406631 11.043003,10.263207 5.7874171,7.4875656 5.7849319,-0.58880423 Z"
         id="path2164" /><path
         id="path356"
         style="fill:none;fill-opacity:1;stroke:#ffffff;stroke-width:0.460509;stroke-linecap:round;stroke-linejoin:round;stroke-dasharray:none;stroke-opacity:1;paint-order:stroke fill markers"
         d="M 5.910796,14.106798 0.47849185,10.478254 0.42062746,3.102689 5.795067,-0.64433163 11.227371,2.9842119 11.28524,10.359777 Z" /><path
         style="fill:#000000;fill-opacity:0;stroke:#ffffff;stroke-width:0.20538;stroke-linecap:round;stroke-linejoin:round;stroke-dasharray:none;stroke-opacity:1;marker-end:url(#RoundedArrow);paint-order:normal"
         d="M 5.8427022,7.3696352 5.8100409,0.35608354"
         id="path1789" /><path
         style="fill:#000000;fill-opacity:0;stroke:#ffffff;stroke-width:0.20538;stroke-linecap:round;stroke-linejoin:round;stroke-dasharray:none;stroke-opacity:1;marker-end:url(#RoundedArrow);paint-order:normal"
         d="M 5.9218224,7.6193738 10.441265,9.9040476"
         id="path2068" /><path
         style="fill:#000000;fill-opacity:0;stroke:#ffffff;stroke-width:0.20538;stroke-linecap:round;stroke-linejoin:round;stroke-dasharray:none;stroke-opacity:1;marker-end:url(#RoundedArrow);paint-order:normal"
         d="M 5.7149842,7.536814 1.2927504,10.0215"
         id="path2074" /><path
         style="fill:#28202d;fill-opacity:1;stroke:#ffffff;stroke-width:0.303128;stroke-linecap:round;stroke-linejoin:round;stroke-dasharray:none;stroke-opacity:1;paint-order:normal"
         d="m 2.8997853,4.5234163 -0.00233,5.2200184 c 0,0 -0.068484,0.3980223 0.3894135,0.4018273 0.4578983,0.0038 0.8315172,-0.0053 0.8315172,-0.0053 0,0 0.3260454,0.05461 0.3212703,-0.4586306 -0.00478,-0.5132427 0.00419,-2.5788497 0.00419,-2.5788497 l 0.7225384,1.6631585 c 0,0 0.079498,0.2689364 0.4507902,0.2705426 0.3712922,0.00161 0.5387894,-0.016272 0.5387894,-0.016272 0,0 0.2284691,0.00636 0.3981438,-0.4773665 C 6.7540458,8.0522424 7.1835549,6.9818138 7.1835549,6.9818138 l -0.022662,2.7499371 c 0,0 0.069471,0.4255461 0.3804581,0.4319511 0.3109864,0.0064 0.8756164,-0.0041 0.8756164,-0.0041 0,0 0.3431197,-0.04795 0.3457987,-0.5134495 0.00268,-0.4654959 -0.00911,-5.1648557 -0.00911,-5.1648557 0,0 0.042302,-0.4345063 -0.5300677,-0.4362628 -0.5723683,-0.00175 -1.1041307,0.00646 -1.1041307,0.00646 0,0 -0.1373047,-0.00846 -0.3378149,0.2675601 C 6.5811275,4.5950629 5.8295746,6.3473497 5.8295746,6.3473497 L 4.871635,4.3820271 c 0,0 -0.1461889,-0.3390112 -0.5855737,-0.3476484 -0.4393849,-0.00864 -1.0408234,-0.00573 -1.0408234,-0.00573 0,0 -0.3345441,-0.00911 -0.3454526,0.4947634 z"
         id="path2078" /></g></g></svg>
